<?xml version="1.0" standalone="no"?>
<!DOCTYPE svg PUBLIC "-//W3C//DTD SVG 20010904//EN"
 "http://www.w3.org/TR/2001/REC-SVG-20010904/DTD/svg10.dtd">
<svg version="1.0" xmlns="http://www.w3.org/2000/svg"
 width="512.000000pt" height="512.000000pt" viewBox="0 0 512.000000 512.000000"
 preserveAspectRatio="xMidYMid meet">
<metadata>
Created by potrace 1.11, written by Peter Selinger 2001-2013
</metadata>
<g transform="translate(0.000000,512.000000) scale(0.100000,-0.100000)"
fill="#000000" stroke="none">
<path d="M0 2560 l0 -2560 2560 0 2560 0 0 2560 0 2560 -2560 0 -2560 0 0
-2560z m3178 1561 c358 -67 602 -226 717 -466 53 -110 74 -194 82 -322 11
-187 -22 -355 -102 -518 -114 -233 -323 -403 -600 -491 -49 -15 -91 -29 -93
-30 -1 -1 135 -293 304 -650 169 -357 317 -673 330 -701 l24 -53 -433 0 -432
0 -272 653 -271 652 -159 3 -158 2 -110 -655 -110 -655 -374 0 -373 0 5 23 c3
12 133 746 288 1630 l284 1609 670 -5 c631 -4 677 -6 783 -26z"/>
<path d="M2291 3163 c-35 -197 -66 -371 -69 -387 l-5 -28 274 5 c236 4 286 8
358 26 220 56 326 155 351 329 18 128 -13 237 -88 304 -89 80 -223 107 -533
108 l-225 0 -63 -357z"/>
</g>
</svg>
